<?xml version="1.0" encoding="utf-8"?>
<!-- Generator: Adobe Illustrator 19.2.0, SVG Export Plug-In . SVG Version: 6.00 Build 0)  -->
<svg version="1.1" id="Layer_1" xmlns="http://www.w3.org/2000/svg" xmlns:xlink="http://www.w3.org/1999/xlink" x="0px" y="0px"
	 viewBox="0 0 450 450" style="enable-background:new 0 0 450 450;" xml:space="preserve">
<style type="text/css">
	.st0{fill:#FFFFFF;}
	.st1{clip-path:url(#SVGID_2_);}
</style>
<title>google</title>
<path class="st0" d="M233.1,313.1c0-26.3-24-51.4-64.3-51.4c-36.3-0.4-67,22.9-67,50c0,27.6,26.2,50.6,62.5,50.6
	C210.7,362.3,233.1,340.7,233.1,313.1z M208,144.4c-4.2-32-25-58.2-49.4-59c-24.3-0.7-40.7,23.8-36.5,55.7
	c4.2,32,27.4,54.3,51.7,55.1S212.2,176.4,208,144.4z M264.4,309.9c0,31.3-28.5,69.3-100.3,69.3c-52.5,0-96.3-22.7-96.3-60.8
	c0-29.4,18.6-67.6,105.6-67.6c-12.9-10.5-16.1-25.3-8.2-41.2c-50.9,0-77-29.9-77-67.9c0-37.2,27.7-71,84.1-71h90.4l-20.2,21.2h-23.7
	c16.7,9.6,25.6,29.3,25.6,51.1c0,20-11,36.2-26.7,48.3c-27.9,21.5-20.7,33.6,8.5,54.9C254.9,267.8,264.4,284.4,264.4,309.9
	L264.4,309.9z M382.2,137.4h-41.7v41.7h-20.8v-41.7H278v-20.8h41.7V74.9h20.8v41.7h41.7V137.4z"/>
<g>
	<defs>
		<path id="SVGID_1_" d="M233.1,313.1c0-26.3-24-51.4-64.3-51.4c-36.3-0.4-67,22.9-67,50c0,27.6,26.2,50.6,62.5,50.6
			C210.7,362.3,233.1,340.7,233.1,313.1z M208,144.4c-4.2-32-25-58.2-49.4-59c-24.3-0.7-40.7,23.8-36.5,55.7
			c4.2,32,27.4,54.3,51.7,55.1S212.2,176.4,208,144.4z M264.4,309.9c0,31.3-28.5,69.3-100.3,69.3c-52.5,0-96.3-22.7-96.3-60.8
			c0-29.4,18.6-67.6,105.6-67.6c-12.9-10.5-16.1-25.3-8.2-41.2c-50.9,0-77-29.9-77-67.9c0-37.2,27.7-71,84.1-71h90.4l-20.2,21.2
			h-23.7c16.7,9.6,25.6,29.3,25.6,51.1c0,20-11,36.2-26.7,48.3c-27.9,21.5-20.7,33.6,8.5,54.9C254.9,267.8,264.4,284.4,264.4,309.9
			L264.4,309.9z M382.2,137.4h-41.7v41.7h-20.8v-41.7H278v-20.8h41.7V74.9h20.8v41.7h41.7V137.4z"/>
	</defs>
	<clipPath id="SVGID_2_">
		<use xlink:href="#SVGID_1_"  style="overflow:visible;"/>
	</clipPath>
	<g class="st1">
		<rect x="63.9" y="66.9" class="st0" width="322.1" height="316.1"/>
	</g>
</g>
</svg>
