<svg id="Layer_1" data-name="Layer 1" xmlns="http://www.w3.org/2000/svg" viewBox="0 0 413.51 298.07"><title>leasing</title><path d="M380.58,116.19C375.39,110.73,369.24,104.38,365,95l-5-14.08s-15.15-40.83-38.55-62.78c0,0-8.72-8.89-20-12.45H113.61c-11.3,3.57-20.07,12.45-20.07,12.45C74.49,38.86,53.4,80.78,53.4,80.78L50.05,94.92C45.4,105.2,39,111.14,33.75,116.84" transform="translate(0 -0.66)" fill="none" stroke="#fff" stroke-linecap="round" stroke-linejoin="round" stroke-width="10"/><path d="M379.62,137.29c7.48-1.52,11.8-.77,13.38.83s3.46,23.55,2.71,29.45,0,15.27-16.09,18.08-71.11,4.69-71.11,4.69,6.3-27.49,14.18-37.32c0,0,18,0,25.9-2.35s23.53-11.83,31-13.39" transform="translate(0 -0.66)" fill="#fff" stroke="#fff" stroke-miterlimit="10"/><path d="M64.54,150.68c7.86,2.4,26,2.4,26,2.4,7.82,9.77,14.13,37.27,14.13,37.27s-55-2-71.1-4.76-15.24-12.18-16.11-18,2.63-27.95,4.15-29.46,4.51-2.33,12-.81,23.2,11,31,13.39" transform="translate(0 -0.66)" fill="#fff" stroke="#fff" stroke-miterlimit="10"/><polyline points="359.62 97.74 241.2 97.74 172.15 97.74 52.81 97.74" fill="#fff" stroke="#fff" stroke-linecap="round" stroke-linejoin="round" stroke-width="10"/><path d="M47.42,78.49l-5.85.31L40.33,67.3c-1.25-12-16.26-8.08-20.71-7.07-6.25,1.56-8.49,2.07-14.5,5.88C-2.71,70.9,1.78,84.7,1.78,84.7c14.13,7,42.29,7.88,42.29,7.88" transform="translate(0 -0.66)" fill="#fff" stroke="#fff" stroke-miterlimit="10"/><path d="M371.14,93.32s26.55-.86,40.59-7.87c0,0,4.46-13.81-3.28-18.59-6.06-3.81-8.29-4.32-14.51-5.87-4.44-1-19.5-4.93-20.68,7L372,79.54l-5.88-.31" transform="translate(0 -0.66)" fill="#fff" stroke="#fff" stroke-miterlimit="10"/><path d="M348.27,271s0.44,27.21,8.47,27.21h36c1.45,0,8.82,3.61,9.59-54.21,0.23-16.86-.34-40.82-0.34-40.82l-14.14.28c-0.2,15-3.24,23.75-3.24,23.75s-13.22,24.15-28,29.72M13.18,203.41c-0.27,9-.42,22.45-0.2,40.56,0.75,56.2,7.76,54.21,9.34,54.21h36c8.78,0,8.72-26.68,8.72-26.68l-12.7-15.34c-17.23-4.67-25.47-29-25.47-29s-1.42-8-1.32-22.46" transform="translate(0 -0.66)" fill="#fff" stroke="#fff" stroke-miterlimit="10"/><path d="M184.2,158c0,11.2,9.06,20.69,20.19,20.69s20.16-8.92,20.16-19.62h69.8c5.35,0,3.64,3.36,3.64,3.36s-6.1,19.18-9.45,26.12-7.81,6.79-12.73,7.65-51.94,1-71.43.78-66.63-.1-71.53-0.89-9.47-.87-12.74-7.8-9.43-26.38-9.43-26.38S109,158,114.29,158" transform="translate(0 -0.66)" fill="#fff" stroke="#fff" stroke-miterlimit="10"/><line x1="56.38" y1="261.84" x2="356.05" y2="261.84" fill="#fff" stroke="#fff" stroke-linecap="round" stroke-linejoin="round" stroke-width="10"/></svg>