<svg id="Layer_1" data-name="Layer 1" xmlns="http://www.w3.org/2000/svg" viewBox="0 0 413.5 293.72"><title>calculate-leasing</title><path d="M382.58,163.21c-5.19-5.46-11.34-11.81-15.55-21.22l-5-14.08s-15.15-40.83-38.55-62.78c0,0-8.72-8.89-20-12.45H115.61c-11.3,3.57-20.07,12.45-20.07,12.45C76.49,85.88,55.4,127.8,55.4,127.8l-3.35,14.14C47.4,152.22,41,158.16,35.75,163.86" transform="translate(-2 -52.02)" fill="none" stroke="#fff" stroke-linecap="round" stroke-linejoin="round" stroke-width="1.3"/><path d="M381.62,184.31c7.48-1.52,11.8-.77,13.38.83s3.46,23.55,2.71,29.45,0,15.27-16.09,18.08-71.11,4.69-71.11,4.69,6.3-27.49,14.18-37.32c0,0,18,0,25.9-2.35s23.53-11.83,31-13.39" transform="translate(-2 -52.02)" fill="#fff" stroke="#fff" stroke-miterlimit="10"/><path d="M66.54,197.7c7.86,2.4,26,2.4,26,2.4,7.82,9.77,14.13,37.27,14.13,37.27s-55-2-71.1-4.76-15.24-12.18-16.11-18,2.63-27.95,4.15-29.46,4.51-2.33,12-.81,23.2,11,31,13.39" transform="translate(-2 -52.02)" fill="#fff" stroke="#fff" stroke-miterlimit="10"/><polyline points="359.62 93.4 241.2 93.4 172.15 93.4 52.81 93.4" fill="#fff" stroke="#fff" stroke-linecap="round" stroke-linejoin="round" stroke-width="1.3"/><path d="M49.42,125.51l-5.85.31-1.24-11.5c-1.25-12-16.26-8.08-20.71-7.07-6.25,1.56-8.49,2.07-14.5,5.88-7.83,4.79-3.34,18.59-3.34,18.59,14.13,7,42.29,7.88,42.29,7.88" transform="translate(-2 -52.02)" fill="#fff" stroke="#fff" stroke-miterlimit="10"/><path d="M373.14,140.34s26.55-.86,40.59-7.87c0,0,4.46-13.81-3.28-18.59-6.06-3.81-8.29-4.32-14.51-5.87-4.44-1-19.5-4.93-20.68,7L374,126.56l-5.88-.31" transform="translate(-2 -52.02)" fill="#fff" stroke="#fff" stroke-miterlimit="10"/><path d="M350.27,318s0.44,27.21,8.47,27.21h36c1.45,0,8.82,3.61,9.59-54.21,0.23-16.86-.34-40.82-0.34-40.82l-14.14.28c-0.2,15-3.24,23.75-3.24,23.75s-13.22,24.15-28,29.72M15.18,250.43c-0.27,9-.42,22.45-0.2,40.56,0.75,56.2,7.76,54.21,9.34,54.21h36c8.78,0,8.72-26.68,8.72-26.68l-12.7-15.34c-17.23-4.67-25.47-28.95-25.47-28.95s-1.42-8-1.32-22.46" transform="translate(-2 -52.02)" fill="#fff" stroke="#fff" stroke-miterlimit="10"/><path d="M186.2,205c0,11.2,9.06,20.69,20.19,20.69s20.16-8.92,20.16-19.62h69.8c5.35,0,3.64,3.36,3.64,3.36s-6.1,19.18-9.45,26.12-7.81,6.79-12.73,7.65-51.94,1-71.43.78-66.63-.1-71.53-0.89-9.47-.87-12.74-7.8-9.43-26.38-9.43-26.38-1.64-3.91,3.61-3.91" transform="translate(-2 -52.02)" fill="#fff" stroke="#fff" stroke-miterlimit="10"/><line x1="56.38" y1="257.5" x2="356.05" y2="257.5" fill="#fff" stroke="#fff" stroke-linecap="round" stroke-linejoin="round" stroke-width="1.3"/></svg>