<svg id="Layer_1" data-name="Layer 1" xmlns="http://www.w3.org/2000/svg" viewBox="0 0 426.64 450"><title>catalog</title><path d="M380,449.68H137.29V426.41H380c4.79,0,8.84-3.12,8.84-6.83V315.32h23.28V419.57c0,16.6-14.41,30.11-32.12,30.11" transform="translate(-11.68)" fill="#333"/><path d="M170.85,450L160.1,429.35l251-130.63a7,7,0,0,0,3.74-4.32,5.28,5.28,0,0,0-.74-4.29l-51.86-80.59,19.57-12.59,51.85,80.57a28.33,28.33,0,0,1,3.67,22.87,30.35,30.35,0,0,1-15.49,19Z" transform="translate(-11.68)" fill="#333"/><path d="M193.67,439.9l-18-14.72L376.76,179a5.38,5.38,0,0,0,1.29-4.33,6.54,6.54,0,0,0-3.06-4.43L281.9,108.44l12.88-19.38,93.08,61.84a30,30,0,0,1,13.21,20.35,28.57,28.57,0,0,1-6.3,22.53Z" transform="translate(-11.68)" fill="#333"/><path d="M176.41,446a11.4,11.4,0,0,1-3.77-.63,11.63,11.63,0,0,1-7.24-14.77l120-350.12a5.07,5.07,0,0,0-.35-4.17,8.4,8.4,0,0,0-5.28-4L206.12,51.82a11.63,11.63,0,1,1,6.24-22.41L286,49.9a31.83,31.83,0,0,1,19.64,15.55A28.29,28.29,0,0,1,307.42,88l-120,350.11a11.63,11.63,0,0,1-11,7.87" transform="translate(-11.68)" fill="#333"/><path d="M41.86,426.41a6.85,6.85,0,0,1-6.9-6.79V30.17a6.88,6.88,0,0,1,6.9-6.89H146a6.88,6.88,0,0,1,6.89,6.89V419.62a6.85,6.85,0,0,1-6.89,6.79H41.86ZM146,0H41.86A30.16,30.16,0,0,0,11.68,30.17V419.62a30.14,30.14,0,0,0,30.18,30.07H146a29.77,29.77,0,0,0,20.48-8.1,1.14,1.14,0,0,0,.46-0.46,29.07,29.07,0,0,0,8.38-14.72,2.71,2.71,0,0,0,.28-1.21,21.25,21.25,0,0,0,.46-4.19,6.61,6.61,0,0,0,.1-1.39V30.17A30.15,30.15,0,0,0,146,0" transform="translate(-11.68)" fill="#333"/><path d="M122.57,387.44a14.32,14.32,0,1,1-14.31-14.32,14.33,14.33,0,0,1,14.31,14.32" transform="translate(-11.68)" fill="#333"/></svg>