<?xml version="1.0" encoding="utf-8"?>
<!-- Generator: Adobe Illustrator 19.2.0, SVG Export Plug-In . SVG Version: 6.00 Build 0)  -->
<svg version="1.1" id="Layer_1" xmlns="http://www.w3.org/2000/svg" xmlns:xlink="http://www.w3.org/1999/xlink" x="0px" y="0px"
	 viewBox="0 0 450 450" style="enable-background:new 0 0 450 450;" xml:space="preserve">
<style type="text/css">
	.st0{fill:#999999;}
	.st1{clip-path:url(#SVGID_3_);}
</style>
<title>google</title>
<path class="st0" d="M235.3,336.4c0-33.3-30.4-64.9-81.3-64.9c-45.9-0.6-84.7,28.9-84.7,63.1c0,34.9,33.1,64,79.1,64
	C207,398.6,235.3,371.4,235.3,336.4z M203.5,123.1c-5.4-40.4-31.6-73.6-62.4-74.6s-51.4,30-46.1,70.4c5.4,40.4,34.5,68.6,65.3,69.6
	S208.8,163.5,203.5,123.1z M274.8,332.4c0,39.5-36,87.6-126.8,87.6c-66.4,0-121.7-28.7-121.7-76.9c0-37.1,23.5-85.4,133.6-85.4
	c-16.4-13.3-20.4-31.9-10.3-52.1c-64.4,0-97.4-37.8-97.4-85.8C52.1,72.7,87,30,158.4,30h114.3L247,56.8h-30
	c21.2,12.1,32.5,37.1,32.5,64.6c0,25.3-13.9,45.7-33.8,61.1c-35.2,27.2-26.3,42.5,10.7,69.3C262.7,279.1,274.8,300.1,274.8,332.4
	L274.8,332.4z M423.8,114.3h-52.7V167h-26.4v-52.7H292V87.9h52.7V35.2h26.4v52.7h52.7V114.3z"/>
<g>
	<g>
		<g>
			<path id="SVGID_1_" class="st0" d="M235.3,336.4c0-33.3-30.4-64.9-81.3-64.9c-45.9-0.6-84.7,28.9-84.7,63.1
				c0,34.9,33.1,64,79.1,64C207,398.6,235.3,371.4,235.3,336.4z M203.5,123.1c-5.4-40.4-31.6-73.6-62.4-74.6s-51.4,30-46.1,70.4
				c5.4,40.4,34.5,68.6,65.3,69.6S208.8,163.5,203.5,123.1z M274.8,332.4c0,39.5-36,87.6-126.8,87.6c-66.4,0-121.7-28.7-121.7-76.9
				c0-37.1,23.5-85.4,133.6-85.4c-16.4-13.3-20.4-31.9-10.3-52.1c-64.4,0-97.4-37.8-97.4-85.8C52.1,72.7,87,30,158.4,30h114.3
				L247,56.8h-30c21.2,12.1,32.5,37.1,32.5,64.6c0,25.3-13.9,45.7-33.8,61.1c-35.2,27.2-26.3,42.5,10.7,69.3
				C262.7,279.1,274.8,300.1,274.8,332.4L274.8,332.4z M423.8,114.3h-52.7V167h-26.4v-52.7H292V87.9h52.7V35.2h26.4v52.7h52.7V114.3
				z"/>
		</g>
		<g>
			<defs>
				<path id="SVGID_2_" d="M235.3,336.4c0-33.3-30.4-64.9-81.3-64.9c-45.9-0.6-84.7,28.9-84.7,63.1c0,34.9,33.1,64,79.1,64
					C207,398.6,235.3,371.4,235.3,336.4z M203.5,123.1c-5.4-40.4-31.6-73.6-62.4-74.6s-51.4,30-46.1,70.4
					c5.4,40.4,34.5,68.6,65.3,69.6S208.8,163.5,203.5,123.1z M274.8,332.4c0,39.5-36,87.6-126.8,87.6c-66.4,0-121.7-28.7-121.7-76.9
					c0-37.1,23.5-85.4,133.6-85.4c-16.4-13.3-20.4-31.9-10.3-52.1c-64.4,0-97.4-37.8-97.4-85.8C52.1,72.7,87,30,158.4,30h114.3
					L247,56.8h-30c21.2,12.1,32.5,37.1,32.5,64.6c0,25.3-13.9,45.7-33.8,61.1c-35.2,27.2-26.3,42.5,10.7,69.3
					C262.7,279.1,274.8,300.1,274.8,332.4L274.8,332.4z M423.8,114.3h-52.7V167h-26.4v-52.7H292V87.9h52.7V35.2h26.4v52.7h52.7
					V114.3z"/>
			</defs>
			<clipPath id="SVGID_3_">
				<use xlink:href="#SVGID_2_"  style="overflow:visible;"/>
			</clipPath>
			<g class="st1">
				<rect x="21.4" y="25.1" class="st0" width="407.3" height="399.6"/>
			</g>
		</g>
	</g>
</g>
</svg>
