<svg data-name="instagram" xmlns="http://www.w3.org/2000/svg" viewBox="0 0 450 450"><title>instagram</title><g id="post-instagram"><path d="M405,0H45A45.13,45.13,0,0,0,0,45V405a45.13,45.13,0,0,0,45,45H405a45.13,45.13,0,0,0,45-45V45A45.13,45.13,0,0,0,405,0ZM225,135c49.5,0,90,40.5,90,90s-40.5,90-90,90-90-40.5-90-90S175.5,135,225,135ZM56.25,405C49.5,405,45,400.5,45,393.75V202.5H92.25C90,209.25,90,218.25,90,225c0,74.25,60.75,135,135,135s135-60.75,135-135c0-6.75,0-15.75-2.25-22.5H405V393.75c0,6.75-4.5,11.25-11.25,11.25H56.25ZM405,101.25c0,6.75-4.5,11.25-11.25,11.25h-45c-6.75,0-11.25-4.5-11.25-11.25v-45C337.5,49.5,342,45,348.75,45h45C400.5,45,405,49.5,405,56.25v45Z" fill="#999"/></g></svg>
