<svg id="Layer_1" data-name="Layer 1" xmlns="http://www.w3.org/2000/svg" viewBox="0 0 450 450.04"><title>leasing</title><path d="M429.78,236a2,2,0,0,0-.26.84c-1.43,5.16-3.38,6.86-8.54,7.52-5.33.77-10.58,1.53-15.9,2.29l-8.63,1.19c-13.45,1.86-23.17,9.64-28.16,22.34-2.54,6.35-5.16,12.61-7.78,18.86l-2.71,6.51c-4.92,12-3.47,23.77,4.3,34.09l3.81,5.07c4.06,5.42,8.21,10.83,12.18,16.25a7.14,7.14,0,0,1-.84,9.82c-4.83,4.9-9.73,9.72-14.55,14.62l-1.44,1.35c-3.64,3.73-6.85,4-10.91.93-6.93-5.16-13.88-10.4-20.73-15.57-9.81-7.36-21-9.22-31.8-5.16-10.24,3.9-20.65,8.12-30.79,12.78a31,31,0,0,0-18.61,24.1q-2.3,13.7-4.06,27.66c-0.51,3.73-2.8,7.78-7.87,8a228.78,228.78,0,0,1-22.93.08c-4.32-.26-7.28-3.21-7.87-7.94-0.93-7.11-2-14.22-3-21.24l-0.68-4.23c-1.86-13.12-9.39-22.67-21.74-27.66l-6.44-2.62c-6.42-2.62-12.94-5.16-19.36-7.87a33.19,33.19,0,0,0-34.43,4.3l-5.76,4.41c-4.73,3.64-9.3,7.11-13.95,10.24a8.09,8.09,0,0,1-3.73,1.34c-7.27-.24-10.49-2.78-12.18-4.56-4.81-5.16-9.72-10.32-14.62-15.4-0.86-.84-0.86-0.93-0.51-1.77a27,27,0,0,1,3.21-6.42c2.8-3.9,5.76-7.79,8.63-11.58q3.81-5,7.36-9.91c7.11-9.72,8.47-20.72,4.06-31.89-3.88-9.72-7.78-19.36-12-28.93-4.65-10.65-13.37-17.59-24.53-19.38-9.05-1.52-18.1-2.78-27.24-4.06-7-.92-8.12-5.07-8.29-8.11a184.86,184.86,0,0,1,.09-22.76c0.08-1.7.42-6.85,8-7.87,6.18-.77,12.44-1.69,18.61-2.54l6.35-.92c13.19-1.86,22.93-9.48,27.92-22,2.71-6.59,5.49-13.19,8.2-19.87l2.45-6c5-11.93,3.47-23.69-4.32-34l-5.24-7c-3.55-4.65-7.11-9.39-10.58-14-2.62-3.47-2.38-7,.68-10.08Q80.84,80.9,89,72.91c3.31-3.3,6.69-3.47,10.41-.77,3.31,2.38,6.51,4.83,9.82,7.28,4,3,8,6.09,12.1,9.05a32.29,32.29,0,0,0,19.36,6.59,34.69,34.69,0,0,0,12.53-2.45c9-3.55,18.61-7.45,28.16-11.67a44.4,44.4,0,0,0,11.25-7.61c8-7.27,9.22-16.92,10.15-23.93l0.42-3c0.34-2.54.68-5.16,1-7.7,0.5-3.81,1-7.69,1.69-11.51,0.35-2.2,1.26-4.74,6.68-6.94h24.62a7.39,7.39,0,0,1,.84.34c4.74,1.69,5.75,4.32,6.17,6.94,1.35,8.2,2.45,16.58,3.47,24.87,1.7,14,9.48,24.11,22.5,29.27,8.45,3.38,16.91,6.85,25.29,10.4,11.93,5,23.77,3.47,34.09-4.23l7-5.24c4.74-3.64,9.57-7.19,14.38-10.75a7.58,7.58,0,0,1,9.81.77C366.26,78,371.58,83.48,377,88.9c3.38,3.46,3.64,6.77.68,10.66l-6.17,8.28c-3.31,4.32-6.51,8.54-9.73,13-7.45,10.06-8.89,21.48-4.15,33.16l4.06,9.64c2.12,5.08,4.23,10.15,6.27,15.31,5.24,14,16,22.08,31,23.6,7.1,0.68,14.89,1.77,23.69,3.3,2.36,0.42,5.07,1.35,7.1,7.28V236Zm19.8-27.15c-4.65-16.41-15.31-21.57-23.44-23-9.3-1.61-17.51-2.71-25.2-3.46-7.45-.77-11.51-3.9-14.14-10.66-2-5.42-4.23-10.66-6.51-16-1.26-3.13-2.62-6.26-3.88-9.39-2-5.07-1.53-9.22,1.69-13.54s6.35-8.54,9.57-12.77l6.26-8.29c8.88-11.93,7.94-26.48-2.54-37.05-5.42-5.5-10.91-11-16.41-16.49a27.65,27.65,0,0,0-36-2.63c-4.9,3.55-9.81,7.28-14.64,10.92l-6.93,5.24c-4.65,3.47-8.88,3.9-14.13,1.7-8.54-3.64-17.09-7.11-25.71-10.58-6.09-2.36-9.05-6.26-9.82-12.86-1.1-8.63-2.2-17.17-3.63-25.72C262.46,13.61,255.6,5.48,245,1.6l-0.92-.43-0.77-.33A11.18,11.18,0,0,0,239.28,0H210.77a11.56,11.56,0,0,0-3.38.6C195,4.9,187.85,12.68,185.91,23.67c-0.77,4.15-1.28,8.29-1.77,12.44-0.35,2.45-.68,4.9-1,7.36l-0.42,3.38c-0.75,5.84-1.35,9.3-3.72,11.42a23.1,23.1,0,0,1-5.84,4.15c-9.22,4.14-18.61,7.87-27.41,11.33-4.57,1.86-8.45,1.35-12.52-1.61l-11.93-8.88c-3.31-2.45-6.6-5-9.9-7.45a27.69,27.69,0,0,0-36.63,2.71c-5.5,5.42-11,10.91-16.41,16.41C48.28,85.17,47.25,99.8,55.8,111.31c3.55,4.74,7.1,9.39,10.66,14.13l5.24,7c3.47,4.56,4,8.8,1.78,14.13l-2.45,6c-2.78,6.68-5.49,13.28-8.2,20-2.38,5.84-6,8.72-12.09,9.57l-6.35.92-18.44,2.54C11.3,187.53,1.24,198,.4,212.31a223.78,223.78,0,0,0-.09,25C1.15,252,11,262.4,26.1,264.42c8.89,1.28,17.77,2.54,26.66,4,4.48,0.75,7.36,3,9.3,7.52,4.15,9.4,8,18.86,11.76,28.34,1.77,4.57,1.26,8.46-1.7,12.52-2.27,3.22-4.65,6.35-7.1,9.48-3,4.06-6,8-9,12.09a49.49,49.49,0,0,0-5.84,11.34,21.5,21.5,0,0,0,5.16,22.84c4.83,4.9,9.57,10,14.29,15,6.51,6.92,15.4,10.65,27,11a27.51,27.51,0,0,0,15-4.73c5.24-3.47,10.23-7.37,15.06-11.09l5.58-4.23c4.74-3.56,9-4.15,14.38-1.86,6.51,2.78,13.1,5.42,19.62,8l6.44,2.63c5.66,2.27,8.46,5.84,9.3,11.75l0.68,4.23c1,6.94,2,14,2.87,20.89,1.86,14.47,13,25,27.08,25.63,4.06,0.17,8.2.26,12.35,0.26s8.29-.09,12.44-0.26c14-.68,25.12-11.25,27-25.63,1.19-9,2.54-18,4-27.06a11,11,0,0,1,7-8.89c9.73-4.39,19.63-8.53,29.53-12.26,4.39-1.61,8.2-.93,12.52,2.36,6.93,5.16,13.87,10.41,20.82,15.66,11.93,8.88,26.81,7.78,37.38-2.8l1.35-1.43c4.9-4.83,9.81-9.73,14.64-14.64,9.9-10,11.09-24.79,2.8-36-4.06-5.58-8.21-11.07-12.35-16.58l-3.82-5c-3.46-4.57-4-8.8-1.77-14.13l2.71-6.42q4.06-9.66,7.87-19.29c2.38-5.93,6-8.89,12.18-9.73l8.71-1.26c5.25-.68,10.49-1.44,15.73-2.21,12.7-1.69,21.06-8.62,24.87-20.81a10.33,10.33,0,0,0,1.44-5.16v-26.9a9.47,9.47,0,0,0-.42-2.71" transform="translate(0 0.02)" fill="#333"/><path d="M226.34,304.44a78.63,78.63,0,1,1,78.58-78.67,78.74,78.74,0,0,1-78.58,78.67m0-177.48a98.85,98.85,0,1,0,98.8,98.8,98.94,98.94,0,0,0-98.8-98.8" transform="translate(0 0.02)" fill="#333"/></svg>