<svg id="Layer_1" data-name="Layer 1" xmlns="http://www.w3.org/2000/svg" viewBox="0 0 450 311.11"><title>testdrive</title><path d="M11.56,347A11.56,11.56,0,0,1,0,335.49v-41c0-124.07,100.94-225,225-225A225,225,0,0,1,335.66,98.5a11.55,11.55,0,0,1-11.37,20.11A202,202,0,0,0,225,92.56c-111.34,0-201.9,90.58-201.9,201.9v41A11.56,11.56,0,0,1,11.56,347" transform="translate(0 -69.44)" fill="#333"/><path d="M438.44,347a11.56,11.56,0,0,1-11.56-11.56v-41a201.55,201.55,0,0,0-29.32-104.87,11.56,11.56,0,0,1,19.75-12A224.79,224.79,0,0,1,450,294.46v41A11.56,11.56,0,0,1,438.44,347" transform="translate(0 -69.44)" fill="#333"/><path d="M206.07,344.17l143-267.5a5.47,5.47,0,0,1,9.77,4.94L228.27,355.41a12.45,12.45,0,0,1-22.47-10.72c0.07-.17.18-0.35,0.26-0.52" transform="translate(0 -69.44)" fill="#333"/><path d="M262.78,334.41a34.56,34.56,0,1,1-34.55-34.56,34.56,34.56,0,0,1,34.55,34.56" transform="translate(0 -69.44)" fill="#333"/><path d="M228.18,357.44H227a22.87,22.87,0,0,1-20.15-14.7,22.55,22.55,0,0,1-1.58-8.32,22.93,22.93,0,0,1,18-22.47,22,22,0,0,1,4.9-.54,22.58,22.58,0,0,1,17.29,7.94,22.27,22.27,0,0,1,5.72,15.07,23,23,0,0,1-23,23m27.73-59.9a45.92,45.92,0,0,0-20.33-8.6,39.39,39.39,0,0,0-7.4-.64,46.07,46.07,0,1,0,27.73,9.24" transform="translate(0 -69.44)" fill="#333"/></svg>