<?xml version="1.0" encoding="utf-8"?>
<!-- Generator: Adobe Illustrator 19.2.0, SVG Export Plug-In . SVG Version: 6.00 Build 0)  -->
<svg version="1.1" id="Layer_1" xmlns="http://www.w3.org/2000/svg" xmlns:xlink="http://www.w3.org/1999/xlink" x="0px" y="0px"
	 viewBox="0 0 450 450" style="enable-background:new 0 0 450 450;" xml:space="preserve">
<style type="text/css">
	.st0{fill:#E3EBEC;}
	.st1{fill:#3E3E3E;}
	.st2{clip-path:url(#SVGID_2_);}
	.st3{fill:#31424A;}
</style>
<title>facebook</title>
<circle class="st0" cx="225" cy="225" r="225"/>
<path class="st1" d="M201.8,193.1h-19.3v31.5h19.3v92.5h37.1v-92.9h25.9l2.8-31.1h-28.6v-17.7c0-7.3,1.5-10.2,8.6-10.2h20.1v-32.3
	h-25.7c-27.6,0-40.1,12.2-40.1,35.4L201.8,193.1L201.8,193.1L201.8,193.1z"/>
<g>
	<defs>
		<path id="SVGID_1_" d="M201.8,193.1h-19.3v31.5h19.3v92.5h37.1v-92.9h25.9l2.8-31.1h-28.6v-17.7c0-7.3,1.5-10.2,8.6-10.2h20.1
			v-32.3h-25.7c-27.6,0-40.1,12.2-40.1,35.4L201.8,193.1L201.8,193.1L201.8,193.1z"/>
	</defs>
	<use xlink:href="#SVGID_1_"  style="overflow:visible;fill:#31424A;"/>
	<clipPath id="SVGID_2_">
		<use xlink:href="#SVGID_1_"  style="overflow:visible;"/>
	</clipPath>
	<g class="st2">
		<rect x="180.2" y="130.6" class="st3" width="89.5" height="188.8"/>
	</g>
</g>
</svg>
