<svg id="Layer_1" data-name="Layer 1" xmlns="http://www.w3.org/2000/svg" xmlns:xlink="http://www.w3.org/1999/xlink" viewBox="0 0 450 450"><defs><clipPath id="clip-path"><path d="M326.81,161.84a83.47,83.47,0,0,1-24,6.56,41.9,41.9,0,0,0,18.37-23.11,83.64,83.64,0,0,1-26.53,10.14,41.81,41.81,0,0,0-71.2,38.11,118.63,118.63,0,0,1-86.13-43.64,41.83,41.83,0,0,0,12.93,55.78,41.59,41.59,0,0,1-18.92-5.22,41.82,41.82,0,0,0,33.51,41.49,41.86,41.86,0,0,1-18.87.72,41.82,41.82,0,0,0,39,29A84,84,0,0,1,123.19,289a118.26,118.26,0,0,0,64,18.78c77.57,0,121.39-65.52,118.75-124.28A84.88,84.88,0,0,0,326.81,161.84Z" fill="none"/></clipPath></defs><title>twitter</title><circle cx="225" cy="225" r="225" fill="#e3ebec"/><g clip-path="url(#clip-path)"><rect x="120.7" y="139.78" width="208.58" height="170.44" fill="#31424a"/></g></svg>